HIERARCHY
ROOT Hips
{
	OFFSET 0.0000 0.0000 0.0000
	CHANNELS 6 Xposition Yposition Zposition Zrotation Xrotation Yrotation
	JOINT Ab
	{
		OFFSET -0.0000 8.0846 -0.0000
		CHANNELS 3 Zrotation Xrotation Yrotation
		JOINT Chest
		{
			OFFSET -0.0000 25.0068 -0.0000
			CHANNELS 3 Zrotation Xrotation Yrotation
			JOINT Neck
			{
				OFFSET -0.0000 25.0068 0.0000
				CHANNELS 3 Zrotation Xrotation Yrotation
				JOINT Head
				{
					OFFSET -0.0000 10.7556 0.0000
					CHANNELS 3 Zrotation Xrotation Yrotation
					End Site
					{
						OFFSET -0.0000 16.6222 0.0000
					}
				}
			}
			JOINT LeftCollar
			{
				OFFSET -0.0000 25.0068 0.0000
				CHANNELS 3 Zrotation Xrotation Yrotation
				JOINT LeftShoulder
				{
					OFFSET 19.5556 -0.0000 0.0000
					CHANNELS 3 Zrotation Xrotation Yrotation
					JOINT LeftElbow
					{
						OFFSET 27.1828 0.0000 0.0000
						CHANNELS 3 Zrotation Xrotation Yrotation
						JOINT LeftWrist
						{
							OFFSET 23.3157 0.0000 0.0000
							CHANNELS 3 Zrotation Xrotation Yrotation
							End Site
							{
								OFFSET 0.0000 -14.6667 0.0000
							}
						}
					}
				}
			}
			JOINT RightCollar
			{
				OFFSET -0.0000 25.0068 0.0000
				CHANNELS 3 Zrotation Xrotation Yrotation
				JOINT RightShoulder
				{
					OFFSET -19.5556 0.0000 0.0000
					CHANNELS 3 Zrotation Xrotation Yrotation
					JOINT RightElbow
					{
						OFFSET -27.1828 0.0000 0.0000
						CHANNELS 3 Zrotation Xrotation Yrotation
						JOINT RightWrist
						{
							OFFSET -23.3157 0.0000 0.0000
							CHANNELS 3 Zrotation Xrotation Yrotation
							End Site
							{
								OFFSET -0.0000 -14.6667 0.0000
							}
						}
					}
				}
			}
		}
	}
	JOINT LeftHip
	{
		OFFSET 11.7333 0.0000 0.0000
		CHANNELS 3 Zrotation Xrotation Yrotation
		JOINT LeftKnee
		{
			OFFSET -0.0000 -40.8688 0.0000
			CHANNELS 3 Zrotation Xrotation Yrotation
			JOINT LeftAnkle
			{
				OFFSET -0.0000 -44.4337 0.0000
				CHANNELS 3 Zrotation Xrotation Yrotation
				End Site
				{
					OFFSET -0.0000 -4.8889 16.6222
				}
			}
		}
	}
	JOINT RightHip
	{
		OFFSET -11.7333 0.0000 0.0000
		CHANNELS 3 Zrotation Xrotation Yrotation
		JOINT RightKnee
		{
			OFFSET -0.0000 -40.8688 0.0000
			CHANNELS 3 Zrotation Xrotation Yrotation
			JOINT RightAnkle
			{
				OFFSET -0.0000 -44.4337 0.0000
				CHANNELS 3 Zrotation Xrotation Yrotation
				End Site
				{
					OFFSET -0.0000 -4.8889 16.6222
				}
			}
		}
	}
}
MOTION
Frames: 14
Frame Time: 0.010000
-0.0317 88.2698 77.1367 0.7448 358.5454 183.8447 3.1912 6.7897 358.8882 354.7850 8.0713 359.4451 1.7226 343.1170 357.8663 3.5923 11.7001 357.2436 340.9890 358.2940 10.1984 299.8929 16.8604 4.9095 13.3086 355.1356 319.1554 84.2886 355.5258 335.4122 20.0818 359.0152 354.6090 31.2890 49.9758 37.5120 330.2781 349.0049 40.8902 275.2252 348.9032 10.4689 1.0364 352.5255 354.8801 357.7858 17.8880 354.5042 356.1211 349.1276 22.4868 2.0702 341.7776 5.1359 358.9050 28.7403 10.4635 354.3315 344.6672 335.1920 
-0.0682 88.1205 76.6907 1.1224 358.8233 183.6480 3.1434 6.6813 359.0712 354.7732 8.0931 359.6233 1.7160 343.1252 357.8289 3.8151 11.9677 357.1752 341.0621 358.2889 10.3057 299.7151 16.4035 5.3479 13.1685 355.1657 319.2579 84.3362 355.6519 335.1629 20.1248 359.0292 354.6317 29.3312 49.7018 39.0476 331.3336 349.4237 41.0300 275.5002 348.8147 11.1771 1.4742 352.9768 355.2355 357.7145 18.2274 354.4339 356.1967 348.5116 22.4140 2.4975 341.8719 5.1076 358.9258 29.5367 10.7064 354.1515 344.2338 335.0499 
-0.0953 87.9952 76.2194 1.4284 359.2187 183.3464 3.0023 6.6823 359.2870 354.7305 8.1753 359.8392 1.8182 343.0737 357.7949 3.9837 12.2315 357.0976 341.1173 358.2672 10.4326 299.6189 16.2758 5.7227 13.2807 355.0867 319.4088 84.1747 355.7602 335.2629 20.1776 359.0537 354.7432 27.7647 49.5009 40.2212 332.1876 349.7080 41.1075 275.8720 348.6495 11.9427 1.8702 353.6624 355.7860 357.6796 18.3747 354.3653 356.1355 348.0296 22.2793 2.8953 342.0963 5.3362 359.0225 30.3322 10.7466 354.0411 343.7557 334.9336 
-0.1604 87.8940 75.7557 1.6214 359.5711 183.1143 2.8229 6.5874 359.4716 354.6459 8.4390 0.0314 1.9159 342.8101 357.7138 4.1228 12.6008 356.9646 341.2046 358.2717 10.3948 299.5275 15.6658 6.0097 13.0747 355.2243 319.5012 84.1667 355.7817 334.9446 20.1929 359.0854 354.8177 26.5441 49.2310 41.1403 332.9564 349.9605 41.2115 276.0200 348.5440 12.9299 2.0958 354.3184 356.2672 357.7127 18.4634 354.2837 356.2120 347.6871 22.1460 3.1213 342.2466 5.2785 359.0096 31.1873 11.0499 353.9471 343.2524 334.7939 
-0.2504 87.8153 75.2983 1.7314 359.8147 182.8690 2.6151 6.4472 359.6456 354.5231 8.5825 0.2110 1.8711 342.6264 357.6154 4.4573 12.9361 356.8228 341.1335 358.2441 10.4789 299.5852 15.6954 6.2253 13.1744 355.1600 319.7220 84.0913 355.8536 334.9355 20.3184 359.0711 354.8202 25.2668 48.8912 42.1071 333.8142 350.2918 41.2540 276.4206 348.5126 13.9492 2.2142 354.9289 356.5448 357.6675 18.4135 354.5398 356.3440 347.4540 21.8917 3.2460 342.2048 4.8311 358.7663 32.1959 11.9291 352.4734 343.8824 334.4870 
-0.3407 87.7570 74.8424 1.7940 0.0752 182.7285 2.4645 6.3349 359.8065 354.2917 8.6568 0.3443 1.7846 342.6631 357.4851 4.8574 13.1045 356.6538 341.1012 358.2508 10.3565 299.6635 15.5888 6.5526 13.1833 355.1594 319.9875 84.1115 355.8909 334.9163 20.4984 359.0511 354.9042 24.4226 48.6450 42.5272 334.6465 350.5999 41.2799 276.6491 348.5360 14.7583 2.2718 355.5395 356.7293 357.6581 18.3892 354.3958 356.1850 347.1078 21.8778 3.2855 342.2254 4.6832 358.7638 33.1053 12.0659 352.5823 343.3983 334.5172 
-0.4172 87.7066 74.3865 1.8607 0.3306 182.6960 2.3397 6.3198 359.8416 354.0721 8.5865 0.3896 1.7457 342.7487 357.3482 5.1670 13.2676 356.4807 341.1007 358.2492 10.2822 299.7764 15.6054 6.7949 13.2228 355.1680 320.2642 84.0607 355.9534 334.9522 20.6034 359.0710 355.0231 24.2828 48.4644 42.3120 335.3359 350.8151 41.4226 277.0409 348.5850 15.7834 2.3604 356.1285 356.7726 357.5951 18.3784 354.2844 356.1558 346.7875 21.8839 3.3309 342.2324 4.4643 358.7268 34.0468 12.2581 352.5074 343.0290 334.3944 
-0.4940 87.6588 73.9517 1.9350 0.3390 182.5623 2.1928 6.0944 359.9790 353.8546 8.4487 0.5245 1.7607 342.7637 357.2967 5.4142 13.5446 356.3890 340.9110 358.2415 10.4616 300.2679 16.0952 6.8416 13.2983 355.1781 320.6750 83.9232 355.9059 335.1892 20.6710 359.0982 355.1626 24.2506 48.2849 42.0774 336.1370 351.1202 41.5367 277.1207 348.7642 16.7377 2.4418 356.4435 356.8018 357.4923 18.4266 354.3912 356.1931 346.4833 21.8248 3.4088 341.9193 4.4243 358.7349 35.0841 12.2560 352.2706 342.7129 334.3360 
-0.5580 87.6120 73.5757 2.0204 0.3159 182.6132 2.0726 5.9919 0.0344 353.7005 8.1674 0.5887 1.7064 342.8505 357.1058 5.6480 13.7656 356.1621 340.8692 358.2406 10.3882 300.4813 16.4649 6.9411 13.4580 355.1587 321.0403 83.6356 356.0334 335.1594 20.6761 359.1059 355.0126 24.5609 47.9888 41.7320 337.0007 351.4608 41.6129 277.1918 348.8866 17.7147 2.5414 356.6584 356.7814 357.4008 18.4493 354.4666 356.1983 346.2453 21.7121 3.4228 341.5095 4.2255 358.7351 36.2083 12.4637 352.1405 342.2540 334.2008 
-0.6305 87.5656 73.1427 2.1129 0.4273 182.6690 2.1434 5.9878 359.9956 353.3177 7.8909 0.5712 1.6925 342.9423 357.0164 5.9283 14.0301 356.0350 340.9147 358.2200 10.5497 300.6477 17.0903 6.9718 13.7265 355.0494 321.4055 83.4796 356.1078 335.2529 20.7583 359.1134 355.0726 24.9410 48.0068 41.1680 337.6253 351.6628 41.6302 277.3923 348.8829 18.4334 2.6474 357.0953 356.8899 357.3739 18.3637 354.4101 356.2145 346.0277 21.5745 3.4305 341.2843 4.0951 359.0313 37.2333 11.6444 352.1511 342.1687 334.5666 
-0.6980 87.5237 72.7151 2.2053 0.4710 182.7613 2.1779 5.8975 359.9942 353.0303 7.6956 0.5697 1.6532 342.9606 356.9244 6.1398 14.2957 355.9098 340.9543 358.2148 10.5736 300.8369 17.0050 6.9529 13.5953 355.1660 321.5922 83.3464 356.2451 334.8659 20.7297 359.0952 354.9985 25.3126 48.1559 40.8183 338.0827 351.8089 41.4832 277.6088 348.9006 18.9980 2.7413 357.4793 356.9048 357.3474 18.2382 354.3295 356.1567 345.8414 21.5249 3.4086 340.9950 3.9920 359.2964 38.2243 11.1967 352.1400 342.0608 334.6292 
-0.7628 87.4886 72.2972 2.2857 0.4542 182.8962 2.1709 5.8039 359.9500 352.8356 7.4084 0.5245 1.5528 343.0922 356.8056 6.3803 14.4607 355.7686 340.9358 358.2009 10.5759 301.0252 17.1622 6.9762 13.5926 355.2179 321.8042 83.1970 356.3155 334.5678 20.6956 359.0986 354.9299 25.8895 48.3280 40.1860 338.5811 352.0022 41.4246 277.6629 348.9797 19.3929 2.8059 357.7792 357.0518 357.4050 18.1292 354.0766 356.0691 345.5683 21.5656 3.3531 340.6112 3.8226 359.5422 39.2271 10.8870 352.5143 341.7937 334.4575 
-0.8242 87.4612 71.8720 2.3646 0.4087 183.0552 2.1186 5.6624 359.8816 352.7332 7.1858 0.4180 1.5396 343.1223 356.7658 6.5116 14.7041 355.7043 340.8931 358.2177 10.6182 301.2224 16.9786 6.9420 13.3914 355.3391 321.9203 83.2008 356.4602 334.1046 20.6740 359.0826 354.8833 26.6648 48.3005 39.3788 339.1715 352.2435 41.4820 277.8779 349.1080 19.8416 2.8732 358.0945 357.0510 357.4205 17.9313 353.9382 355.7173 345.1816 21.5046 3.2598 340.2348 3.6974 359.9979 40.0005 9.7044 352.6848 341.5102 334.5993 
-0.8642 87.4367 71.4368 2.4652 0.4284 183.3377 2.1892 5.6440 359.7435 352.5139 6.8664 0.2870 1.5209 343.2775 356.6936 6.6341 14.8389 355.6108 340.9129 358.2005 10.6279 301.3519 17.3875 6.9302 13.5129 355.2616 322.0888 83.3345 356.4828 334.1401 20.6561 359.0861 354.8070 27.0987 48.9628 38.8338 339.2741 352.2116 41.2634 277.9400 349.1440 19.7478 2.9836 358.4494 356.9635 357.4440 17.7362 353.8868 355.6260 345.0239 21.3786 3.1462 340.0043 3.4472 0.4642 40.4911 8.6790 352.8258 341.3893 334.7964 
